<?xml version="1.0" encoding="UTF-8" standalone="no"?>
<svg
   xmlns:dc="http://purl.org/dc/elements/1.1/"
   xmlns:cc="http://creativecommons.org/ns#"
   xmlns:rdf="http://www.w3.org/1999/02/22-rdf-syntax-ns#"
   xmlns:svg="http://www.w3.org/2000/svg"
   xmlns="http://www.w3.org/2000/svg"
   version="1.1"
   id="svg2"
   viewBox="0 0 84.906333 84.711692"
   height="23.907522mm"
   width="23.962454mm">
  <defs
     id="defs4" />
  <metadata
     id="metadata7">
    <rdf:RDF>
      <cc:Work
         rdf:about="">
        <dc:format>image/svg+xml</dc:format>
        <dc:type
           rdf:resource="http://purl.org/dc/dcmitype/StillImage" />
        <dc:title></dc:title>
      </cc:Work>
    </rdf:RDF>
  </metadata>
  <g
     transform="translate(-669.0023,-865.02549)"
     id="layer1">
    <path
       id="path3347"
       d="m 693.46686,949.08913 c -26.65534,-0.54653 -24.41835,3.28633 -24.41835,-41.83835 l 0,-36.08893 2.153,-3.93872 3.98336,-2.19764 36.08893,0 36.08892,0 3.83397,2.48693 2.22682,3.96015 0.37108,33.87615 c 0.41283,37.68798 0.0307,40.10302 -6.79627,42.95553 -4.15589,1.73644 -5.88518,1.76179 -53.53146,0.78488 z m -5.0227,-14.08304 2.68177,-2.51939 2.28003,2.51939 c 2.48656,2.74762 6.2513,3.31824 7.59099,1.15057 0.4653,-0.75286 -0.39786,-3.05124 -1.91813,-5.1075 l -2.76411,-3.73867 2.85899,-3.04326 c 2.67277,-2.84504 2.72278,-3.17949 0.76767,-5.1346 -1.95511,-1.95511 -2.28956,-1.9051 -5.1346,0.76767 l -3.04326,2.85899 -3.87635,-2.86591 c -3.46819,-2.56414 -4.07639,-2.66586 -5.77621,-0.96604 -1.69982,1.69982 -1.63203,2.24036 0.64385,5.13367 3.15203,4.00716 3.16859,5.0115 0.12801,7.76319 -2.67831,2.42383 -2.15727,5.70129 0.90637,5.70129 1.08526,0 3.18,-1.13373 4.65498,-2.5194 z m 45.6001,-5.60131 c 7.61386,-7.68215 7.93234,-8.23691 5.89711,-10.27215 -2.03524,-2.03523 -2.59,-1.71675 -10.27215,5.89711 -4.46639,4.42669 -8.12071,9.04915 -8.12071,10.27214 0,4.2987 4.49131,2.17912 12.49575,-5.8971 z m -40.22905,-31.57703 c 0.33995,-3.51693 0.85641,-4.05226 3.90944,-4.05226 4.57467,0 7.26598,-2.98365 5.07386,-5.625 -0.85586,-1.03125 -3.1391,-1.875 -5.07386,-1.875 -3.05506,0 -3.56926,-0.53434 -3.90944,-4.0625 -0.29876,-3.0986 -0.98487,-4.0625 -2.8917,-4.0625 -1.90683,0 -2.59294,0.9639 -2.8917,4.0625 -0.34018,3.52816 -0.85439,4.0625 -3.90944,4.0625 -1.93476,0 -4.218,0.84375 -5.07386,1.875 -2.20686,2.6591 0.5102,5.625 5.15306,5.625 3.11625,0 3.59694,0.47331 3.59694,3.54167 0,4.11815 0.98878,5.43923 3.68904,4.9288 1.1682,-0.22082 2.0913,-1.973 2.32766,-4.41821 z m 48.25607,-4.811 c 1.08747,-0.4173 1.97723,-1.76337 1.97723,-2.99126 0,-1.22789 -0.88976,-2.57396 -1.97723,-2.99126 -2.56582,-0.9846 -18.47972,-0.9846 -21.04554,0 -2.3508,0.90208 -2.63931,5.01577 -0.41473,5.91341 2.25793,0.9111 19.12454,0.96542 21.46027,0.0691 z"
       style="fill:#68b0d4" />
  </g>
</svg>
